<svg width="14" height="14" viewBox="0 0 14 14" fill="none" xmlns="http://www.w3.org/2000/svg">
<path d="M11.025 13.3583C10.9667 13.3583 10.9083 13.3583 10.85 13.3583C8.98333 13.125 7.11667 12.4833 5.54167 11.4917C4.08333 10.5583 2.8 9.275 1.86667 7.81667C0.816667 6.24167 0.175 4.375 0 2.50833C0 2.04167 0.116667 1.575 0.408333 1.225C0.7 0.875 1.10833 0.641667 1.575 0.583333C1.63333 0.583333 1.69167 0.583333 1.75 0.583333H3.5C4.375 0.583333 5.13333 1.225 5.25 2.1C5.30833 2.625 5.425 3.15 5.6 3.61667C5.83333 4.25833 5.65833 4.95833 5.19167 5.48333L4.78333 5.89167C5.48333 6.94167 6.35833 7.875 7.46667 8.575L7.875 8.16667C8.34167 7.7 9.1 7.525 9.74167 7.75833C10.2083 7.93333 10.7333 8.05 11.2583 8.10833C12.1333 8.225 12.775 8.98333 12.775 9.85833V11.6083C12.775 12.075 12.6 12.5417 12.25 12.8333C11.9 13.125 11.4917 13.3583 11.025 13.3583ZM3.5 1.75H1.75C1.575 1.75 1.4 1.86667 1.28333 1.98333C1.225 2.1 1.16667 2.21667 1.16667 2.39167C1.34167 4.08333 1.925 5.71667 2.85833 7.175C3.73333 8.51667 4.84167 9.68333 6.18333 10.5C7.64167 11.4333 9.275 12.0167 10.9667 12.1917C11.2 12.1917 11.3167 12.1333 11.4333 12.0167C11.55 11.9 11.6083 11.7833 11.6083 11.6083V9.85833C11.6083 9.56667 11.375 9.33333 11.0833 9.275C10.5 9.21667 9.91667 9.04167 9.33333 8.80833C9.1 8.75 8.86667 8.75 8.69167 8.925L7.93333 9.68333C7.75833 9.85833 7.46667 9.91667 7.23333 9.8C5.65833 8.925 4.375 7.64167 3.5 6.06667C3.44167 5.83333 3.5 5.54167 3.675 5.36667L4.43333 4.60833C4.55 4.49167 4.60833 4.2 4.55 4.025C4.31667 3.44167 4.2 2.85833 4.08333 2.275C4.08333 1.98333 3.79167 1.75 3.5 1.75ZM10.4417 5.83333C10.15 5.83333 9.91667 5.65833 9.85833 5.36667C9.68333 4.43333 8.925 3.73333 7.99167 3.5C7.7 3.44167 7.46667 3.15 7.525 2.8C7.58333 2.50833 7.875 2.275 8.225 2.33333C9.625 2.625 10.7333 3.675 10.9667 5.075C11.025 5.36667 10.85 5.71667 10.5 5.775C10.5 5.775 10.5 5.83333 10.4417 5.83333ZM12.775 5.775C12.4833 5.775 12.25 5.54167 12.1917 5.25C11.9583 3.09167 10.2667 1.4 8.05 1.10833C7.75833 1.05 7.525 0.758333 7.525 0.466667C7.525 0.175 7.875 -0.0583333 8.16667 -0.0583333C10.9083 0.233333 13.0083 2.33333 13.3 5.075C13.3583 5.36667 13.125 5.65833 12.775 5.71667C12.8333 5.775 12.775 5.775 12.775 5.775Z" fill="white"/>
</svg>
