<svg width="12" height="13" viewBox="0 0 12 13" fill="none" xmlns="http://www.w3.org/2000/svg">
<path fill-rule="evenodd" clip-rule="evenodd" d="M5.4752 0.122878C5.68585 -0.0409593 5.98082 -0.0409593 6.19147 0.122878L11.4415 4.20621C11.5836 4.31673 11.6667 4.48666 11.6667 4.66667V11.0833C11.6667 11.5475 11.4823 11.9926 11.1541 12.3208C10.8259 12.649 10.3808 12.8333 9.91667 12.8333H1.75C1.28587 12.8333 0.840752 12.649 0.512563 12.3208C0.184374 11.9926 0 11.5475 0 11.0833V4.66667C0 4.48666 0.0831092 4.31673 0.225201 4.20621L5.4752 0.122878ZM1.16667 4.95197V11.0833C1.16667 11.238 1.22812 11.3864 1.33752 11.4958C1.44692 11.6052 1.59529 11.6667 1.75 11.6667H9.91667C10.0714 11.6667 10.2197 11.6052 10.3291 11.4958C10.4385 11.3864 10.5 11.238 10.5 11.0833V4.95197L5.83333 1.32234L1.16667 4.95197Z" fill="white"/>
<path fill-rule="evenodd" clip-rule="evenodd" d="M3.5 6.41667C3.5 6.0945 3.76117 5.83333 4.08333 5.83333H7.58333C7.9055 5.83333 8.16667 6.0945 8.16667 6.41667V12.25C8.16667 12.5722 7.9055 12.8333 7.58333 12.8333C7.26117 12.8333 7 12.5722 7 12.25V7H4.66667V12.25C4.66667 12.5722 4.4055 12.8333 4.08333 12.8333C3.76117 12.8333 3.5 12.5722 3.5 12.25V6.41667Z" fill="white"/>
</svg>
