<svg width="175" height="18" viewBox="0 0 175 18" fill="none" xmlns="http://www.w3.org/2000/svg">
<path d="M13.6172 13.0078C13.6172 13.6562 13.4961 14.2148 13.2539 14.6836C13.0195 15.1523 12.7031 15.5508 12.3047 15.8789C11.9062 16.207 11.4453 16.4766 10.9219 16.6875C10.4062 16.8906 9.86719 17.0508 9.30469 17.168C8.74219 17.2852 8.17578 17.3633 7.60547 17.4023C7.04297 17.4414 6.51562 17.4609 6.02344 17.4609C5.53906 17.4609 5.03516 17.4414 4.51172 17.4023C3.99609 17.3711 3.48047 17.3125 2.96484 17.2266C2.44922 17.1406 1.94141 17.0273 1.44141 16.8867C0.941406 16.7383 0.46875 16.5547 0.0234375 16.3359L0 1.24219C0.4375 1.0625 0.902344 0.902344 1.39453 0.761719C1.88672 0.613281 2.38672 0.492188 2.89453 0.398438C3.41016 0.296875 3.92188 0.222656 4.42969 0.175781C4.9375 0.121094 5.42969 0.09375 5.90625 0.09375C6.46094 0.09375 7.01953 0.128906 7.58203 0.199219C8.15234 0.269531 8.69922 0.386719 9.22266 0.550781C9.74609 0.714844 10.2344 0.929687 10.6875 1.19531C11.1406 1.45312 11.5352 1.77344 11.8711 2.15625C12.2148 2.53906 12.4805 2.98438 12.668 3.49219C12.8633 4 12.9609 4.58594 12.9609 5.25C12.9609 5.6875 12.8984 6.09766 12.7734 6.48047C12.6484 6.86328 12.4688 7.20703 12.2344 7.51172C12 7.81641 11.7148 8.07812 11.3789 8.29688C11.043 8.50781 10.6641 8.66406 10.2422 8.76562C10.75 8.89844 11.2109 9.09375 11.625 9.35156C12.0469 9.60938 12.4023 9.92188 12.6914 10.2891C12.9883 10.6562 13.2148 11.0703 13.3711 11.5312C13.5352 11.9922 13.6172 12.4844 13.6172 13.0078ZM7.66406 6.32812C7.66406 6.10156 7.61719 5.91016 7.52344 5.75391C7.42969 5.58984 7.3125 5.45703 7.17188 5.35547C7.03906 5.25391 6.89062 5.17969 6.72656 5.13281C6.57031 5.08594 6.42969 5.0625 6.30469 5.0625C6.14844 5.0625 5.99609 5.08594 5.84766 5.13281C5.69922 5.17969 5.55469 5.23438 5.41406 5.29688L5.34375 7.89844C5.52344 7.89844 5.74609 7.88281 6.01172 7.85156C6.27734 7.82031 6.53125 7.75391 6.77344 7.65234C7.02344 7.54297 7.23438 7.38672 7.40625 7.18359C7.57812 6.97266 7.66406 6.6875 7.66406 6.32812ZM6 10.1484C5.77344 10.1484 5.55469 10.1719 5.34375 10.2188L5.29688 12.8906C5.41406 12.9141 5.52734 12.9375 5.63672 12.9609C5.75391 12.9766 5.86719 12.9844 5.97656 12.9844C6.14062 12.9844 6.32031 12.9688 6.51562 12.9375C6.71094 12.8984 6.89453 12.8281 7.06641 12.7266C7.23828 12.6172 7.37891 12.4727 7.48828 12.293C7.60547 12.1133 7.66406 11.875 7.66406 11.5781C7.66406 11.2812 7.60547 11.0391 7.48828 10.8516C7.37891 10.6641 7.24219 10.5195 7.07812 10.418C6.91406 10.3086 6.73438 10.2383 6.53906 10.207C6.34375 10.168 6.16406 10.1484 6 10.1484ZM27.0938 7.71094C27.0938 8.39062 27.0469 9.07031 26.9531 9.75C25.6172 9.83594 24.2891 9.97656 22.9688 10.1719C21.6484 10.3594 20.3281 10.5469 19.0078 10.7344C19.2109 11.2969 19.5273 11.7461 19.957 12.082C20.3945 12.418 20.9141 12.5859 21.5156 12.5859C21.8281 12.5859 22.168 12.5273 22.5352 12.4102C22.9102 12.293 23.2812 12.1484 23.6484 11.9766C24.0156 11.7969 24.3672 11.6055 24.7031 11.4023C25.0391 11.1992 25.3281 11.0156 25.5703 10.8516L25.0078 16.1719C24.7031 16.4062 24.3711 16.6055 24.0117 16.7695C23.6602 16.9336 23.293 17.0664 22.9102 17.168C22.5273 17.2695 22.1406 17.3438 21.75 17.3906C21.3594 17.4375 20.9766 17.4609 20.6016 17.4609C19.8281 17.4609 19.1211 17.3555 18.4805 17.1445C17.8398 16.9336 17.2578 16.6406 16.7344 16.2656C16.2188 15.8828 15.7656 15.4336 15.375 14.918C14.9844 14.4023 14.6602 13.8398 14.4023 13.2305C14.1445 12.6211 13.9492 11.9766 13.8164 11.2969C13.6836 10.6172 13.6172 9.92969 13.6172 9.23438C13.6172 8.50781 13.6836 7.78125 13.8164 7.05469C13.9492 6.32812 14.1484 5.62891 14.4141 4.95703C14.6875 4.28516 15.0273 3.66406 15.4336 3.09375C15.8477 2.51563 16.3281 2.01172 16.875 1.58203C17.4219 1.15234 18.0391 0.816406 18.7266 0.574219C19.4219 0.332031 20.1875 0.210938 21.0234 0.210938C21.7188 0.210938 22.3516 0.308594 22.9219 0.503906C23.5 0.691406 24.0117 0.957031 24.457 1.30078C24.9102 1.63672 25.3008 2.03906 25.6289 2.50781C25.9648 2.97656 26.2383 3.49219 26.4492 4.05469C26.668 4.60937 26.8281 5.19922 26.9297 5.82422C27.0391 6.44141 27.0938 7.07031 27.0938 7.71094ZM22.4062 7.10156C22.4062 6.88281 22.3828 6.66016 22.3359 6.43359C22.2891 6.19922 22.2109 5.98828 22.1016 5.80078C22 5.61328 21.8633 5.46094 21.6914 5.34375C21.5195 5.21875 21.3047 5.15625 21.0469 5.15625C20.7344 5.15625 20.457 5.24219 20.2148 5.41406C19.9805 5.57812 19.7773 5.78906 19.6055 6.04688C19.4336 6.29688 19.293 6.57031 19.1836 6.86719C19.0742 7.16406 18.9922 7.4375 18.9375 7.6875L22.4062 7.35938V7.10156ZM39.8789 11.1797C39.8789 12.25 39.6914 13.1758 39.3164 13.957C38.9492 14.7305 38.4414 15.3711 37.793 15.8789C37.1523 16.3789 36.3984 16.75 35.5312 16.9922C34.6719 17.2266 33.7461 17.3438 32.7539 17.3438C32.3711 17.3438 31.9492 17.293 31.4883 17.1914C31.0352 17.0898 30.5742 16.9648 30.1055 16.8164C29.6367 16.6602 29.1836 16.4961 28.7461 16.3242C28.3164 16.1445 27.9336 15.9766 27.5977 15.8203L28.1133 11.2266C28.7773 11.625 29.5117 11.9297 30.3164 12.1406C31.1289 12.3438 31.9258 12.4453 32.707 12.4453C32.8555 12.4453 33.0352 12.4414 33.2461 12.4336C33.457 12.418 33.6562 12.3828 33.8438 12.3281C34.0391 12.2656 34.2031 12.1758 34.3359 12.0586C34.4688 11.9414 34.5352 11.7734 34.5352 11.5547C34.5352 11.4062 34.4883 11.2812 34.3945 11.1797C34.3008 11.0703 34.1797 10.9844 34.0312 10.9219C33.8828 10.8516 33.7148 10.8008 33.5273 10.7695C33.3398 10.7305 33.1562 10.7031 32.9766 10.6875C32.7969 10.6719 32.6289 10.6641 32.4727 10.6641C32.3164 10.6641 32.1914 10.6641 32.0977 10.6641C31.4258 10.6641 30.8125 10.5586 30.2578 10.3477C29.7109 10.1367 29.2383 9.83984 28.8398 9.45703C28.4492 9.06641 28.1445 8.59766 27.9258 8.05078C27.707 7.49609 27.5977 6.88281 27.5977 6.21094C27.5977 5.28906 27.7812 4.46484 28.1484 3.73828C28.5234 3.00391 29.0195 2.38281 29.6367 1.875C30.2617 1.35938 30.9766 0.964844 31.7812 0.691406C32.5859 0.417969 33.418 0.28125 34.2773 0.28125C34.6602 0.28125 35.0547 0.296875 35.4609 0.328125C35.8672 0.351562 36.2695 0.398438 36.668 0.46875C37.0742 0.539062 37.4688 0.628906 37.8516 0.738281C38.2344 0.847656 38.5977 0.984375 38.9414 1.14844L38.4961 5.90625C37.9648 5.72656 37.4062 5.57812 36.8203 5.46094C36.2422 5.33594 35.6758 5.27344 35.1211 5.27344C35.0195 5.27344 34.8867 5.27734 34.7227 5.28516C34.5664 5.28516 34.3984 5.29688 34.2188 5.32031C34.0469 5.33594 33.8711 5.36328 33.6914 5.40234C33.5117 5.44141 33.3516 5.49609 33.2109 5.56641C33.0703 5.62891 32.957 5.71484 32.8711 5.82422C32.7852 5.93359 32.7461 6.0625 32.7539 6.21094C32.7617 6.38281 32.8242 6.51562 32.9414 6.60938C33.0664 6.70312 33.2227 6.77344 33.4102 6.82031C33.6055 6.85938 33.8164 6.87891 34.043 6.87891C34.2773 6.87891 34.5078 6.875 34.7344 6.86719C34.9609 6.85156 35.1719 6.83984 35.3672 6.83203C35.5625 6.81641 35.7227 6.8125 35.8477 6.82031C36.4727 6.85938 37.0352 6.99219 37.5352 7.21875C38.0352 7.44531 38.457 7.74609 38.8008 8.12109C39.1523 8.49609 39.418 8.94531 39.5977 9.46875C39.7852 9.98438 39.8789 10.5547 39.8789 11.1797ZM52.7695 0.65625L52.6523 5.625L49.1602 5.76562L48.7383 16.6406L43.793 16.8984L43.3477 6.02344L39.8555 6.21094L39.9961 0.679688L52.7695 0.65625ZM133.84 6.375C133.84 7.13281 133.727 7.80469 133.5 8.39062C133.273 8.97656 132.961 9.49219 132.562 9.9375C132.172 10.375 131.711 10.7461 131.18 11.0508C130.648 11.3477 130.078 11.5938 129.469 11.7891C128.867 11.9766 128.242 12.1172 127.594 12.2109C126.945 12.2969 126.309 12.3438 125.684 12.3516V17.3438H120.223C120.223 16.4531 120.223 15.5859 120.223 14.7422C120.23 13.8984 120.234 13.0625 120.234 12.2344C120.242 11.3984 120.246 10.5586 120.246 9.71484C120.254 8.87109 120.262 8 120.27 7.10156C120.285 6.14844 120.289 5.19531 120.281 4.24219C120.273 3.28906 120.293 2.32813 120.34 1.35938C121.34 1.0625 122.34 0.839844 123.34 0.691406C124.34 0.542969 125.371 0.46875 126.434 0.46875C127.035 0.46875 127.637 0.519531 128.238 0.621094C128.84 0.714844 129.414 0.867188 129.961 1.07812C130.516 1.28906 131.027 1.55469 131.496 1.875C131.973 2.1875 132.383 2.5625 132.727 3C133.07 3.4375 133.34 3.9375 133.535 4.5C133.738 5.0625 133.84 5.6875 133.84 6.375ZM128.637 6.77344C128.637 6.26562 128.48 5.87109 128.168 5.58984C127.863 5.30078 127.465 5.15625 126.973 5.15625C126.809 5.15625 126.637 5.17187 126.457 5.20312C126.285 5.22656 126.121 5.25781 125.965 5.29688L125.824 8.71875C125.934 8.73438 126.039 8.74219 126.141 8.74219C126.242 8.74219 126.348 8.74219 126.457 8.74219C126.738 8.74219 127.008 8.69531 127.266 8.60156C127.531 8.50781 127.766 8.375 127.969 8.20312C128.172 8.02344 128.332 7.81641 128.449 7.58203C128.574 7.33984 128.637 7.07031 128.637 6.77344ZM144.785 10.9688L144.293 16.1719L134.426 16.9453L134.801 0.210938H140.895L140.027 10.9688H144.785ZM160.113 16.1719L154.301 16.9219L153.598 14.2734H150.926L150.34 16.9219L144.363 16.3359L149.027 0.726562L155.543 0.398438L160.113 16.1719ZM153.176 10.6875L152.285 6.60938L151.418 10.6875H153.176ZM174.902 11.25C174.902 12.1328 174.891 13.0078 174.867 13.875C174.852 14.7344 174.824 15.6016 174.785 16.4766L168.035 16.3594C168.27 14.9766 168.473 13.5977 168.645 12.2227C168.816 10.8398 168.902 9.44531 168.902 8.03906C168.902 7.9375 168.898 7.77344 168.891 7.54688C168.883 7.32031 168.867 7.06641 168.844 6.78516C168.82 6.49609 168.785 6.20312 168.738 5.90625C168.699 5.60156 168.641 5.32422 168.562 5.07422C168.492 4.82422 168.402 4.62109 168.293 4.46484C168.191 4.30078 168.066 4.21875 167.918 4.21875C167.652 4.21875 167.426 4.29688 167.238 4.45312C167.059 4.60937 166.906 4.8125 166.781 5.0625C166.664 5.30469 166.57 5.57812 166.5 5.88281C166.43 6.1875 166.375 6.49219 166.336 6.79688C166.305 7.10156 166.281 7.39062 166.266 7.66406C166.258 7.92969 166.254 8.14844 166.254 8.32031C166.215 9.70312 166.184 11.0781 166.16 12.4453C166.137 13.8047 166.105 15.1797 166.066 16.5703L160.09 16.8281C160.246 14.0703 160.395 11.3281 160.535 8.60156C160.684 5.875 160.801 3.13281 160.887 0.375L166.418 0.09375L166.371 1.96875C166.59 1.70312 166.824 1.45312 167.074 1.21875C167.332 0.984375 167.605 0.785156 167.895 0.621094C168.184 0.449219 168.488 0.316406 168.809 0.222656C169.137 0.121094 169.48 0.0703125 169.84 0.0703125C170.504 0.0703125 171.086 0.179687 171.586 0.398438C172.086 0.617188 172.516 0.914062 172.875 1.28906C173.234 1.66406 173.535 2.10938 173.777 2.625C174.02 3.13281 174.215 3.67578 174.363 4.25391C174.512 4.83203 174.625 5.4375 174.703 6.07031C174.781 6.69531 174.832 7.3125 174.855 7.92188C174.887 8.53125 174.902 9.12109 174.902 9.69141C174.902 10.2617 174.902 10.7812 174.902 11.25Z" fill="#333333"/>
<path d="M70.5352 0.65625L70.418 5.625L66.9258 5.76562L66.5039 16.6406L61.5586 16.8984L61.1133 6.02344L57.6211 6.21094L57.7617 0.679688L70.5352 0.65625ZM85.4531 8.20312C85.4531 8.91406 85.3711 9.60156 85.207 10.2656C85.043 10.9219 84.8047 11.5391 84.4922 12.1172C84.1875 12.6953 83.8125 13.2266 83.3672 13.7109C82.9297 14.1875 82.4336 14.5977 81.8789 14.9414C81.332 15.2852 80.7344 15.5547 80.0859 15.75C79.4375 15.9375 78.75 16.0312 78.0234 16.0312C77.3203 16.0312 76.6484 15.9414 76.0078 15.7617C75.375 15.582 74.7812 15.332 74.2266 15.0117C73.6719 14.6836 73.168 14.293 72.7148 13.8398C72.2695 13.3789 71.8867 12.8711 71.5664 12.3164C71.2539 11.7539 71.0078 11.1523 70.8281 10.5117C70.6562 9.87109 70.5703 9.20312 70.5703 8.50781C70.5703 7.82812 70.6523 7.16406 70.8164 6.51562C70.9805 5.85938 71.2148 5.24219 71.5195 4.66406C71.832 4.08594 72.207 3.55469 72.6445 3.07031C73.082 2.58594 73.5703 2.16797 74.1094 1.81641C74.6562 1.46484 75.2461 1.19141 75.8789 0.996094C76.5117 0.800781 77.1797 0.703125 77.8828 0.703125C79.0156 0.703125 80.0469 0.878906 80.9766 1.23047C81.9141 1.58203 82.7109 2.08594 83.3672 2.74219C84.0312 3.39062 84.543 4.17969 84.9023 5.10938C85.2695 6.03125 85.4531 7.0625 85.4531 8.20312ZM80.25 8.50781C80.25 8.17188 80.1992 7.84766 80.0977 7.53516C80.0039 7.21484 79.8633 6.93359 79.6758 6.69141C79.4883 6.44141 79.2539 6.24219 78.9727 6.09375C78.6992 5.9375 78.3828 5.85938 78.0234 5.85938C77.6562 5.85938 77.3281 5.92578 77.0391 6.05859C76.75 6.19141 76.5 6.375 76.2891 6.60938C76.0859 6.83594 75.9297 7.10547 75.8203 7.41797C75.7109 7.72266 75.6562 8.04688 75.6562 8.39062C75.6562 8.71875 75.7031 9.04688 75.7969 9.375C75.8906 9.70312 76.0312 10 76.2188 10.2656C76.4062 10.5312 76.6367 10.7461 76.9102 10.9102C77.1914 11.0742 77.5156 11.1562 77.8828 11.1562C78.25 11.1562 78.5781 11.0859 78.8672 10.9453C79.1641 10.7969 79.4141 10.6016 79.6172 10.3594C79.8203 10.1094 79.9766 9.82422 80.0859 9.50391C80.1953 9.18359 80.25 8.85156 80.25 8.50781ZM100.242 0.679688C99.8906 3.42969 99.5898 6.16797 99.3398 8.89453C99.0898 11.6133 98.8516 14.3516 98.625 17.1094L93.8203 17.4609L94.0312 15.6562C93.875 15.8359 93.6914 15.9922 93.4805 16.125C93.2773 16.2578 93.0586 16.3672 92.8242 16.4531C92.5898 16.5312 92.3477 16.5898 92.0977 16.6289C91.8477 16.6602 91.6094 16.6719 91.3828 16.6641C90.8516 16.6562 90.3516 16.5547 89.8828 16.3594C89.4141 16.1562 88.9844 15.8906 88.5938 15.5625C88.2031 15.2266 87.8516 14.8398 87.5391 14.4023C87.2266 13.957 86.9609 13.4922 86.7422 13.0078C86.5312 12.5156 86.3672 12.0156 86.25 11.5078C86.1406 11 86.0859 10.5078 86.0859 10.0312C86.0859 9.32812 86.0977 8.60156 86.1211 7.85156C86.1523 7.09375 86.2031 6.33594 86.2734 5.57812C86.3438 4.82031 86.4336 4.07031 86.543 3.32812C86.6602 2.58594 86.8047 1.875 86.9766 1.19531C87.9297 1.24219 88.8867 1.28516 89.8477 1.32422C90.8086 1.36328 91.7656 1.375 92.7188 1.35938C92.5391 2.03906 92.3594 2.72266 92.1797 3.41016C92.0078 4.08984 91.8516 4.77734 91.7109 5.47266C91.5703 6.16016 91.457 6.85156 91.3711 7.54688C91.2852 8.24219 91.2422 8.94531 91.2422 9.65625C91.2422 9.82031 91.25 10.0547 91.2656 10.3594C91.2812 10.6641 91.3203 10.9648 91.3828 11.2617C91.4531 11.5586 91.5547 11.8203 91.6875 12.0469C91.8281 12.2656 92.0234 12.375 92.2734 12.375C92.5703 12.375 92.8359 12.25 93.0703 12C93.3047 11.7422 93.5117 11.3984 93.6914 10.9688C93.8711 10.5391 94.0234 10.043 94.1484 9.48047C94.2812 8.91797 94.3906 8.33203 94.4766 7.72266C94.5703 7.10547 94.6445 6.48438 94.6992 5.85938C94.7539 5.23438 94.793 4.64844 94.8164 4.10156C94.8477 3.54688 94.8672 3.05078 94.875 2.61328C94.8906 2.17578 94.8984 1.83594 94.8984 1.59375C94.8984 1.4375 94.8945 1.28516 94.8867 1.13672C94.8789 0.988281 94.8672 0.835937 94.8516 0.679688C95.3594 0.695312 95.8633 0.707031 96.3633 0.714844C96.8633 0.722656 97.3672 0.726562 97.875 0.726562C98.2656 0.726562 98.6562 0.726562 99.0469 0.726562C99.4453 0.71875 99.8438 0.703125 100.242 0.679688ZM114.68 5.88281C114.68 6.49219 114.625 7.04688 114.516 7.54688C114.414 8.03906 114.25 8.49219 114.023 8.90625C113.797 9.32031 113.504 9.70312 113.145 10.0547C112.785 10.4062 112.352 10.7422 111.844 11.0625L114.633 16.0312L109.359 17.0625L107.555 12.0703L106.102 12.1172L105.891 16.9922H100.852C100.891 15.2109 100.926 13.4375 100.957 11.6719C100.996 9.90625 101.039 8.13281 101.086 6.35156C101.102 5.45312 101.117 4.5625 101.133 3.67969C101.148 2.79688 101.18 1.90625 101.227 1.00781C101.773 0.804688 102.312 0.636719 102.844 0.503906C103.375 0.371094 103.906 0.269531 104.438 0.199219C104.977 0.121094 105.52 0.0703125 106.066 0.046875C106.621 0.015625 107.188 0 107.766 0C108.656 0 109.516 0.125 110.344 0.375C111.18 0.617188 111.918 0.984375 112.559 1.47656C113.199 1.96875 113.711 2.58203 114.094 3.31641C114.484 4.05078 114.68 4.90625 114.68 5.88281ZM109.43 6.25781C109.43 5.92969 109.383 5.62891 109.289 5.35547C109.203 5.08203 109.07 4.84766 108.891 4.65234C108.719 4.44922 108.5 4.29297 108.234 4.18359C107.977 4.06641 107.672 4.00781 107.32 4.00781C107.164 4.00781 107.012 4.01953 106.863 4.04297C106.715 4.05859 106.57 4.08594 106.43 4.125L106.242 8.48438H106.523C106.859 8.48438 107.199 8.44141 107.543 8.35547C107.895 8.26953 108.207 8.13672 108.48 7.95703C108.762 7.77734 108.988 7.54688 109.16 7.26562C109.34 6.98438 109.43 6.64844 109.43 6.25781Z" fill="#EC1F46"/>
</svg>
